<?xml version="1.0" encoding="UTF-8"?>
<svg id="_レイヤー_2" data-name="レイヤー 2" xmlns="http://www.w3.org/2000/svg" viewBox="0 0 153.12 133.5">
  <defs>
    <style>
      .cls-1 {
        fill: #fff;
      }

      .cls-2 {
        fill: #4cc6e2;
      }

      .cls-3 {
        fill: #00aed6;
      }
    </style>
  </defs>
  <g id="_レイヤー_1-2" data-name="レイヤー 1">
    <g>
      <path class="cls-3" d="M124.31,98.61c-1.97,0-3.58-1.6-3.58-3.58,0-24.36-19.82-44.17-44.17-44.17s-44.17,19.82-44.17,44.17c0,1.97-1.6,3.58-3.58,3.58s-3.58-1.6-3.58-3.58c0-6.93,1.36-13.65,4.03-19.98,2.59-6.11,6.29-11.6,11-16.31,4.71-4.71,10.2-8.41,16.31-11,6.33-2.68,13.05-4.03,19.98-4.03s13.65,1.36,19.98,4.03c6.11,2.59,11.6,6.29,16.31,11,4.71,4.71,8.41,10.2,11,16.31,2.68,6.33,4.03,13.05,4.03,19.98,0,1.97-1.6,3.58-3.58,3.58Z"/>
      <ellipse class="cls-3" cx="125.24" cy="98.97" rx="24.28" ry="23.42"/>
      <ellipse class="cls-3" cx="33.06" cy="98.97" rx="24.28" ry="23.42"/>
      <g>
        <path class="cls-2" d="M29.81,123.35c-1.79,0-3.5-.55-5.05-1.66-4.01-2.86-5.81-8.72-6.62-13.14-.97-5.34-1.04-11.56-.19-17.08,1.4-9.03,4.98-14.91,10.08-16.55,1.88-.61,3.89.43,4.5,2.31.61,1.88-.43,3.89-2.31,4.5-2.25.73-4.3,4.98-5.21,10.84-1.62,10.41.76,21.07,3.89,23.3.34.24.9.64,2.35-.12,1.75-.92,3.91-.25,4.83,1.49.92,1.75.25,3.91-1.49,4.83-1.61.85-3.23,1.27-4.79,1.27Z"/>
        <path class="cls-2" d="M123.31,123.35c-1.56,0-3.18-.42-4.79-1.27-1.75-.92-2.41-3.08-1.49-4.83.92-1.75,3.08-2.41,4.83-1.49,1.45.76,2.01.36,2.35.12,3.12-2.23,5.5-12.89,3.89-23.3-.91-5.86-2.95-10.11-5.21-10.84-1.88-.61-2.91-2.62-2.31-4.5.61-1.88,2.62-2.91,4.5-2.31,5.1,1.64,8.68,7.52,10.08,16.55.86,5.51.79,11.74-.19,17.08-.81,4.42-2.61,10.28-6.62,13.14-1.55,1.1-3.26,1.66-5.05,1.66Z"/>
      </g>
      <g>
        <path class="cls-1" d="M12.1.26c-3.68-1.2-7.36,1.84-6.87,5.68,2.09,16.47,12.02,75.82,28.45,81.79,7.87,2.59,35.55-14.81,30.42-25.54C47.68,26.81,24.1,4.17,12.1.26Z"/>
        <path class="cls-1" d="M141.84.26c3.68-1.2,7.36,1.84,6.87,5.68-2.09,16.47-12.02,75.82-28.45,81.79-7.87,2.59-35.55-14.81-30.42-25.54C106.25,26.81,129.84,4.17,141.84.26Z"/>
      </g>
      <path class="cls-2" d="M20.94,81.31c-.81,0-1.57-.48-1.9-1.27L.16,34.39c-.43-1.05.07-2.25,1.11-2.69,1.05-.43,2.25.06,2.69,1.11l18.88,45.65c.43,1.05-.07,2.25-1.11,2.69-.26.11-.52.16-.78.16Z"/>
      <path class="cls-1" d="M131.36,97.98c0,22.84-24.54,35.52-54.8,35.52-30.27,0-54.8-12.68-54.8-35.52s24.54-47.2,54.8-47.2,54.8,24.36,54.8,47.2Z"/>
      <path class="cls-3" d="M47.1,56.95c-1.87,3.53-2.56,7.3-2.22,11.27.3,2.73,1.92,4.61,4.94,5.72,1.7.63,3.32.61,5.4-.2,1.43-.56,3.91-2.68,3.58-4.85-.44-2.82-2.31-3.01-3.89-4.46-1.71-1.71-1.84-3.72-2.24-6.09-.14-1.21-.51-2.97-1.75-3.55-1.62-.76-3.06.96-3.82,2.15Z"/>
      <path class="cls-3" d="M106.84,56.95c1.87,3.53,2.56,7.3,2.22,11.27-.3,2.73-1.92,4.61-4.94,5.72-1.7.63-3.32.61-5.4-.2-1.43-.56-3.91-2.68-3.58-4.85.44-2.82,2.31-3.01,3.89-4.46,1.71-1.71,1.84-3.72,2.24-6.09.14-1.21.51-2.97,1.75-3.55,1.62-.76,3.06.96,3.82,2.15Z"/>
      <path class="cls-2" d="M132.18,81.31c-.26,0-.53-.05-.78-.16-1.05-.43-1.55-1.64-1.11-2.69l18.88-45.65c.43-1.05,1.64-1.55,2.69-1.11,1.05.43,1.55,1.64,1.11,2.69l-18.88,45.65c-.33.79-1.09,1.27-1.9,1.27Z"/>
      <g>
        <g>
          <path class="cls-1" d="M121.78,87.23c.99,0,1.97.04,2.95.12.35,1.93.53,3.92.53,5.96,0,18.75-16.93,35.51-38,29.09-.01-.4-.02-.8-.02-1.2,0-18.76,15.47-33.97,34.55-33.97Z"/>
          <path class="cls-3" d="M96.35,124.2c-3.02,0-6.11-.47-9.21-1.41l-.27-.08v-.29c-.02-.41-.03-.82-.03-1.21,0-4.64.92-9.14,2.75-13.38,1.76-4.09,4.28-7.77,7.49-10.93,3.21-3.16,6.95-5.63,11.11-7.36,4.31-1.79,8.89-2.7,13.6-2.7.99,0,1.99.04,2.98.12l.31.03.05.3c.36,1.98.54,4.01.54,6.03,0,4.92-1.17,9.87-3.39,14.31-2.19,4.39-5.37,8.21-9.2,11.04-4.95,3.66-10.69,5.54-16.73,5.54ZM87.65,122.1c8.96,2.65,17.81,1.2,24.95-4.08,7.68-5.68,12.26-14.92,12.26-24.7,0-1.87-.16-3.75-.47-5.58-.87-.06-1.74-.1-2.6-.1-18.83,0-34.15,15.06-34.15,33.57,0,.29,0,.59.01.9Z"/>
        </g>
        <path class="cls-3" d="M87.23,121.2c0,.4,0,.8.02,1.2,19.61,5.98,35.63-8.12,37.76-25.22-1.12-4.59-4.37-7.75-8.66-9.54-16.5,2.56-29.12,16.61-29.12,33.55Z"/>
      </g>
      <g>
        <g>
          <path class="cls-1" d="M31.33,87.23c-.99,0-1.97.04-2.95.12-.35,1.93-.53,3.92-.53,5.96,0,18.75,16.93,35.51,38,29.09.01-.4.02-.8.02-1.2,0-18.76-15.47-33.97-34.55-33.97Z"/>
          <path class="cls-3" d="M56.77,124.2c-6.04,0-11.78-1.87-16.73-5.54-3.82-2.83-7-6.65-9.2-11.04-2.22-4.44-3.39-9.38-3.39-14.31,0-2.02.18-4.05.54-6.03l.05-.3.31-.03c.99-.08,1.99-.12,2.98-.12,4.72,0,9.29.91,13.6,2.7,4.16,1.73,7.9,4.21,11.11,7.36,3.21,3.16,5.73,6.83,7.49,10.93,1.82,4.24,2.75,8.74,2.75,13.38,0,.39,0,.8-.02,1.21v.29s-.28.08-.28.08c-3.1.94-6.19,1.41-9.21,1.41ZM28.73,87.73c-.31,1.83-.47,3.71-.47,5.58,0,9.78,4.58,19.02,12.26,24.7,7.14,5.29,15.99,6.73,24.95,4.08,0-.3.01-.6.01-.9,0-18.51-15.32-33.57-34.15-33.57-.86,0-1.74.03-2.6.1Z"/>
        </g>
        <path class="cls-3" d="M65.88,121.2c0,.4,0,.8-.02,1.2-19.61,5.98-35.63-8.12-37.76-25.22,1.12-4.59,4.37-7.75,8.66-9.54,16.5,2.56,29.12,16.61,29.12,33.55Z"/>
      </g>
      <g>
        <polygon class="cls-1" points="46.99 89.93 43.12 106.39 50.86 106.39 46.99 89.93"/>
        <polygon class="cls-1" points="46.99 122.85 50.86 106.39 43.12 106.39 46.99 122.85"/>
      </g>
      <g>
        <polygon class="cls-1" points="63.45 106.39 46.99 104.38 46.99 108.4 63.45 106.39"/>
        <polygon class="cls-1" points="30.53 106.39 46.99 108.4 46.99 104.38 30.53 106.39"/>
      </g>
      <g>
        <polygon class="cls-1" points="56.05 115.45 49.08 104.3 44.9 108.48 56.05 115.45"/>
        <polygon class="cls-1" points="37.93 97.33 44.9 108.48 49.08 104.3 37.93 97.33"/>
      </g>
      <g>
        <polygon class="cls-1" points="56.05 97.33 44.9 104.3 49.08 108.48 56.05 97.33"/>
        <polygon class="cls-1" points="37.93 115.45 49.08 108.48 44.9 104.3 37.93 115.45"/>
      </g>
    </g>
  </g>
</svg>